Coordinates
version=1
nRows=16
nColumns=36
inDegrees=yes

Units are S.I. units (second, meters, Newtons, ...)
If the header above contains a line with 'inDegrees', this indicates whether rotational values are in degrees (yes) or radians (no).

endheader
time	pelvis_tilt	pelvis_list	pelvis_rotation	pelvis_tx	pelvis_ty	pelvis_tz	hip_flexion_r	hip_adduction_r	hip_rotation_r	knee_angle_r	knee_angle_r_beta	ankle_angle_r	subtalar_angle_r	mtp_angle_r	hip_flexion_l	hip_adduction_l	hip_rotation_l	knee_angle_l	knee_angle_l_beta	ankle_angle_l	subtalar_angle_l	mtp_angle_l	lumbar_extension	lumbar_bending	lumbar_rotation	arm_flex_r	arm_add_r	arm_rot_r	elbow_flex_r	pro_sup_r	arm_flex_l	arm_add_l	arm_rot_l	elbow_flex_l	pro_sup_l
     29.90000000	      0.21239700	      5.21983553	     -3.05522326	      0.66622742	      0.80855906	      0.73155908	      2.12479101	     -7.08157153	     -0.65346217	     57.00089760	      0.99485334	    -13.50768272	    -14.03846825	     -7.49999987	     22.48654101	      8.83748834	      3.69717452	     27.50155844	      0.47999274	     10.94598223	     -7.65461054	     -7.49999987	    -10.17024010	     -4.74754832	      3.36046144	     10.89158845	    -12.53418627	      8.79098719	     22.40068266	     87.68964761	      6.29988149	    -10.13032187	      4.72525126	      8.70323843	     90.09456977
     29.91666670	      0.14493322	      4.80771444	     -3.39976762	      0.66555603	      0.81166385	      0.73181059	      6.01237350	     -6.52990825	     -0.34477863	     61.08917132	      1.06620718	    -12.98681916	    -13.53643210	     -7.49999987	     20.08846288	      8.33935095	      3.87455640	     25.32413250	      0.44198949	     10.84754361	     -7.60734952	     -7.49999987	    -10.12695481	     -4.17228834	      3.12346577	     10.82005581	    -12.58118739	      9.25915244	     21.79977739	     87.95086640	      6.21714222	    -10.15536149	      5.43160598	      9.14403894	     89.87609274
     29.93333330	      0.41202440	      4.29008452	     -3.77369628	      0.66531357	      0.81385871	      0.73148084	      8.74973749	     -5.55285642	      0.05084553	     63.72133811	      1.11214715	    -11.67909012	    -13.13818871	     -7.49999987	     17.38855535	      7.73058380	      3.86750328	     23.23513200	      0.40552956	     10.78038985	     -7.41880709	     -7.49999987	    -10.35207454	     -3.51417532	      3.00522336	     10.76805144	    -12.70329685	      9.57333039	     21.12040689	     87.87553258	      6.53832892	    -10.08242395	      5.87521712	      9.43734669	     89.20039038
     29.95000000	      0.69607732	      3.78481008	     -4.05547714	      0.66639127	      0.81542955	      0.72992593	     10.85734667	     -4.44401547	      0.35966071	     65.25779766	      1.13896343	     -9.59597284	    -12.89518162	     -7.49999987	     14.72916312	      7.28936284	      4.17717472	     21.26795004	      0.37119575	     10.63569692	     -7.81790280	     -7.49999987	    -10.55354358	     -2.84473574	      2.62102334	     10.55083211	    -12.91267326	      9.87380733	     20.79658529	     88.07138430	      6.72412050	    -10.06440553	      6.20147258	     10.00552054	     88.82385919
     29.96666670	      1.04466765	      3.28262405	     -4.43168399	      0.66813398	      0.81790653	      0.72792416	     12.70896512	     -3.29755730	      0.76695644	     65.89540766	      1.15009183	     -6.65801905	    -12.90026940	     -7.49999987	     12.01071735	      6.88327646	      4.34737883	     19.37867576	      0.33822170	     10.74029073	     -7.91386240	     -7.49999987	    -10.80354858	     -2.17934656	      2.19378434	     10.27535003	    -13.43250635	     11.08239949	     20.49479701	     94.05614875	      6.79306381	    -10.19206072	      7.39095926	     10.71533356	     92.16076364
     29.98333330	      1.40798014	      2.66980313	     -4.68048556	      0.66914648	      0.82090356	      0.72628266	     14.62549172	     -2.15585373	      1.06209326	     65.19925591	      1.13794169	     -3.20242170	    -13.03995991	     -7.49999987	      9.16825373	      6.38709434	      4.65622537	     17.43762021	      0.30434389	     11.09243927	     -7.71942166	     -7.49999987	    -11.17616521	     -1.37959039	      1.84524574	      9.59256263	    -13.78684402	     10.66173480	     20.37377627	     92.98548360	      6.99445392	     -9.99069995	      7.10550699	     11.21754444	     90.74239412
     30.00000000	      1.67232765	      2.06679624	     -4.86510654	      0.66834824	      0.82295378	      0.72573302	     16.81906780	     -1.18582962	      1.38323353	     63.52218662	      1.10867130	      0.16500952	    -13.12218142	     -7.49999987	      6.43946060	      5.86025055	      4.96890819	     15.60761665	      0.27240430	     11.49035039	     -7.41698294	     -7.49999987	    -11.59792802	     -0.57752409	      1.29629560	      8.82489960	    -14.02583936	      8.94970151	     20.36515264	     98.35850298	      6.97463639	     -9.93928074	      5.50068755	     12.15336991	     93.57974261
     30.01666670	      1.77092209	      1.53063284	     -4.88394494	      0.66594998	      0.82343928	      0.72602786	     19.13515994	     -0.44311547	      1.56550602	     60.97193052	      1.06416094	      2.80472991	    -13.02439485	     -7.49999987	      4.03006972	      5.36792732	      5.31355001	     14.03192048	      0.24490321	     12.04131668	     -6.80409218	     -7.49999987	    -11.84386428	      0.14032700	      0.72712933	      8.01614242	    -14.27308352	      8.88613361	     20.14859512	     97.75009032	      7.16369773	    -10.00704715	      5.48230090	     12.67503283	     92.97160595
     30.03333330	      1.45405268	      1.07294616	     -4.75471436	      0.66315060	      0.82246510	      0.72640385	     21.58421059	      0.19242908	      1.64276836	     57.74288005	      1.00780338	      4.28711488	    -13.05716660	     -7.49999987	      2.31237020	      4.94212158	      5.81386285	     12.77186158	      0.22291104	     12.43592693	     -6.59454181	     -7.49999987	    -11.56403940	      0.83749166	      0.05341805	      7.06701694	    -14.44074730	      8.85797588	     19.90854414	     97.97065064	      7.35600232	    -10.14242735	      5.51025073	     13.02510514	     93.10020377
     30.05000000	      1.18521263	      0.61414628	     -4.53334693	      0.66083465	      0.82082259	      0.72641167	     23.52472016	      0.77412228	      1.62988484	     53.98838762	      0.94227512	      5.13761962	    -12.78326613	     -7.49999987	      0.76177328	      4.52973324	      6.41735345	     11.79437087	      0.20585060	     13.05151064	     -6.42287626	     -7.49999987	    -11.37385787	      1.54253220	     -0.68286037	      6.17452369	    -14.53999948	      8.75974664	     19.87550046	     97.94043371	      7.52245255	    -10.41347686	      5.56017083	     13.80968732	     93.03874863
     30.06666670	      0.94046028	      0.18428956	     -4.31734621	      0.65895065	      0.81877150	      0.72683988	     25.05008024	      1.30980028	      1.66287432	     49.93431487	      0.87151820	      5.38791626	    -12.65805172	     -7.49999987	     -0.61318588	      4.10606753	      6.72068571	     11.14423911	      0.19450367	     13.81043724	     -6.02815762	     -7.49999987	    -11.18173784	      2.13772931	     -1.39534499	      5.42762627	    -14.55945690	      8.58042360	     19.70639251	     97.95489073	      7.85758884	    -10.76084049	      5.62902186	     14.57065127	     93.05512567
     30.08333330	      0.80038202	     -0.24382732	     -3.99822072	      0.65717837	      0.81737473	      0.72780623	     26.11298473	      1.76194155	      1.75121605	     45.52725452	      0.79460049	      5.20595545	    -12.72876353	     -7.49999987	     -1.99799713	      3.67817557	      7.15701048	     10.66273913	      0.18609991	     14.36061762	     -6.10515193	     -7.49999987	    -11.11987035	      2.81888557	     -2.34171997	      4.94476668	    -14.36113613	      8.01286736	     19.40972779	     96.17226324	      8.35398745	    -11.14760418	      5.39249658	     15.39228991	     91.50322502
     30.10000000	      0.67707859	     -0.67792609	     -3.94068830	      0.65610948	      0.81666852	      0.72901123	     26.99932548	      2.32908796	      2.21804996	     40.81803931	      0.71240918	      4.94881279	    -12.68073661	     -7.49999987	     -3.43420838	      3.18699680	      6.99461795	     10.20775365	      0.17815891	     15.26941586	     -5.57555787	     -7.49999987	    -11.05151690	      3.41999559	     -2.96115865	      4.56864472	    -14.18954622	      7.62664933	     19.18705802	     95.08403677	      8.95689715	    -11.61473108	      5.43224939	     16.32075222	     90.68944986
     30.11666670	      0.55904846	     -1.10522861	     -3.65467361	      0.65581797	      0.81602883	      0.72902740	     27.69640458	      2.72044027	      2.51451812	     35.63443385	      0.62193820	      4.62019513	    -12.35238442	     -7.49999987	     -5.02301404	      2.69925554	      7.01988571	      9.56861820	      0.16700389	     16.18496975	     -4.88949937	     -7.49999987	    -10.95381379	      4.03429607	     -3.53942934	      4.00706739	    -13.96229167	      5.26073459	     19.12895546	    100.36926448	      9.81122804	    -12.26522383	      6.22663119	     17.31834407	     95.20883393
     30.13333330	      0.24778118	     -1.45141521	     -3.25493160	      0.65569695	      0.81459027	      0.72814940	     28.42071457	      2.92077955	      2.84337164	     30.03928936	      0.52428450	      4.31543892	    -11.76967992	     -7.49999987	     -6.60634293	      2.30486502	      7.27808308	      8.68204413	      0.15153026	     16.81554633	     -4.33964592	     -7.49999987	    -10.51000362	      4.58164215	     -4.59202453	      3.76411070	    -13.73974292	      4.96060438	     18.46873383	     99.75367142	     10.52303022	    -12.74009468	      5.85749176	     17.61403264	     94.70174704
     30.15000000	      0.04034858	     -1.79894410	     -2.90601118	      0.65494994	      0.81286659	      0.72695725	     28.70988237	      3.10537607	      3.55052879	     23.95741554	      0.41813578	      3.96365319	    -11.28625985	     -7.49999987	     -8.48196963	      1.91050257	      7.35268684	      7.66092834	      0.13370842	     17.37290444	     -3.27006841	     -7.49999987	    -10.22452962	      5.15899187	     -5.63069696	      3.63489524	    -13.60341599	      4.83016820	     17.57306210	     99.20456733	     10.73393110	    -13.36112407	      5.66341283	     18.94299703	     94.06616579
